<?xml version="1.0"?>
<svg version="1.1" id="topsvg"
xmlns="http://www.w3.org/2000/svg" xmlns:xlink="http://www.w3.org/1999/xlink"
xmlns:cml="http://www.xml-cml.org/schema" x="0" y="0" width="200px" height="200px" viewBox="0 0 100 100">
<title>310f - Open Babel Depiction</title>
<rect x="0" y="0" width="100" height="100" fill="white"/>
<g transform="translate(0,0)">
<svg width="100" height="100" x="0" y="0" viewBox="0 0 293.205 260"
font-family="sans-serif" stroke="rgb(0,0,0)" stroke-width="2"  stroke-linecap="round">
<line x1="149.3" y1="180.0" x2="149.3" y2="207.0" stroke="rgb(0,0,0)"  stroke-width="2.0"/>
<polygon points="114.641016 160.000000 93.431535 176.864102 89.431535 169.935898 " stroke-width="2.000000" fill="rgb(0,0,0)"  stroke="rgb(0,0,0)" />
<line x1="107.3" y1="116.7" x2="108.1" y2="115.3" stroke="rgb(0,0,0)"  stroke-width="1.0"/>
<line x1="101.5" y1="114.0" x2="102.9" y2="111.6" stroke="rgb(0,0,0)"  stroke-width="1.0"/>
<line x1="95.6" y1="111.4" x2="97.7" y2="107.8" stroke="rgb(0,0,0)"  stroke-width="1.0"/>
<line x1="89.7" y1="108.8" x2="92.4" y2="104.0" stroke="rgb(0,0,0)"  stroke-width="1.0"/>
<line x1="83.9" y1="106.1" x2="87.2" y2="100.3" stroke="rgb(0,0,0)"  stroke-width="1.0"/>
<line x1="78.0" y1="103.5" x2="82.0" y2="96.5" stroke="rgb(0,0,0)"  stroke-width="1.0"/>
<polygon points="149.282032 100.000000 145.282032 73.200000 153.282032 73.200000 " stroke-width="2.000000" fill="rgb(0,0,0)"  stroke="rgb(0,0,0)" />
<line x1="183.9" y1="120.0" x2="207.3" y2="106.5" stroke="rgb(0,0,0)"  stroke-width="2.0"/>
<line x1="183.9" y1="160.0" x2="207.3" y2="173.5" stroke="rgb(0,0,0)"  stroke-width="2.0"/>
<line x1="80.0" y1="100.0" x2="53.0" y2="100.0" stroke="rgb(0,0,0)"  stroke-width="2.0"/>
<line x1="80.0" y1="100.0" x2="66.5" y2="123.4" stroke="rgb(0,0,0)"  stroke-width="2.0"/>
<line x1="80.0" y1="100.0" x2="80.0" y2="73.0" stroke="rgb(0,0,0)"  stroke-width="2.0"/>
<line x1="67.2" y1="176.1" x2="55.1" y2="169.1" stroke="rgb(0,0,0)"  stroke-width="2.0"/>
<line x1="70.2" y1="170.9" x2="58.1" y2="163.9" stroke="rgb(0,0,0)"  stroke-width="2.0"/>
<line x1="83.0" y1="193.0" x2="83.0" y2="207.0" stroke="rgb(0,0,0)"  stroke-width="2.0"/>
<line x1="77.0" y1="193.0" x2="77.0" y2="207.0" stroke="rgb(0,0,0)"  stroke-width="2.0"/>
<line x1="159.0" y1="50.9" x2="171.2" y2="43.9" stroke="rgb(0,0,0)"  stroke-width="2.0"/>
<line x1="162.0" y1="56.1" x2="174.2" y2="49.1" stroke="rgb(0,0,0)"  stroke-width="2.0"/>
<line x1="136.5" y1="56.1" x2="124.4" y2="49.1" stroke="rgb(0,0,0)"  stroke-width="2.0"/>
<line x1="139.5" y1="50.9" x2="127.4" y2="43.9" stroke="rgb(0,0,0)"  stroke-width="2.0"/>
<line x1="221.6" y1="193.0" x2="221.6" y2="207.0" stroke="rgb(0,0,0)"  stroke-width="2.0"/>
<line x1="215.6" y1="193.0" x2="215.6" y2="207.0" stroke="rgb(0,0,0)"  stroke-width="2.0"/>
<line x1="228.3" y1="170.9" x2="240.4" y2="163.9" stroke="rgb(0,0,0)"  stroke-width="2.0"/>
<line x1="231.3" y1="176.1" x2="243.4" y2="169.1" stroke="rgb(0,0,0)"  stroke-width="2.0"/>
<line x1="114.6" y1="160.0" x2="149.3" y2="180.0" stroke="rgb(0,0,0)"  stroke-width="2.0"/>
<line x1="149.3" y1="180.0" x2="183.9" y2="160.0" stroke="rgb(0,0,0)"  stroke-width="2.0"/>
<line x1="150.9" y1="170.8" x2="175.1" y2="156.8" stroke="rgb(0,0,0)"  stroke-width="2.0"/>
<line x1="183.9" y1="160.0" x2="183.9" y2="120.0" stroke="rgb(0,0,0)"  stroke-width="2.0"/>
<line x1="176.7" y1="154.0" x2="176.7" y2="126.0" stroke="rgb(0,0,0)"  stroke-width="2.0"/>
<line x1="183.9" y1="120.0" x2="149.3" y2="100.0" stroke="rgb(0,0,0)"  stroke-width="2.0"/>
<line x1="149.3" y1="100.0" x2="114.6" y2="120.0" stroke="rgb(0,0,0)"  stroke-width="2.0"/>
<line x1="114.6" y1="120.0" x2="114.6" y2="160.0" stroke="rgb(0,0,0)"  stroke-width="2.0"/>
<text x="143.282032" y="228.000000" fill="rgb(191,191,191)"  stroke="rgb(191,191,191)" stroke-width="1" font-size="16" >H</text>
<text x="212.564065" y="108.000000" fill="rgb(191,191,191)"  stroke="rgb(191,191,191)" stroke-width="1" font-size="16" >H</text>
<text x="34.000000" y="108.000000" fill="rgb(191,191,191)"  stroke="rgb(191,191,191)" stroke-width="1" font-size="16" >H</text>
<text x="54.000000" y="142.641016" fill="rgb(191,191,191)"  stroke="rgb(191,191,191)" stroke-width="1" font-size="16" >H</text>
<text x="74.000000" y="68.000000" fill="rgb(191,191,191)"  stroke="rgb(191,191,191)" stroke-width="1" font-size="16" >H</text>
<text x="74.000000" y="188.000000" fill="rgb(12,12,255)"  stroke="rgb(12,12,255)" stroke-width="1" font-size="16" >N</text>
<text x="39.358984" y="168.000000" fill="rgb(255,12,12)"  stroke="rgb(255,12,12)" stroke-width="1" font-size="16" >O</text>
<text x="74.000000" y="228.000000" fill="rgb(255,12,12)"  stroke="rgb(255,12,12)" stroke-width="1" font-size="16" >O</text>
<text x="143.282032" y="68.000000" fill="rgb(12,12,255)"  stroke="rgb(12,12,255)" stroke-width="1" font-size="16" >N</text>
<text x="177.923048" y="48.000000" fill="rgb(255,12,12)"  stroke="rgb(255,12,12)" stroke-width="1" font-size="16" >O</text>
<text x="108.641016" y="48.000000" fill="rgb(255,12,12)"  stroke="rgb(255,12,12)" stroke-width="1" font-size="16" >O</text>
<text x="212.564065" y="188.000000" fill="rgb(12,12,255)"  stroke="rgb(12,12,255)" stroke-width="1" font-size="16" >N</text>
<text x="212.564065" y="228.000000" fill="rgb(255,12,12)"  stroke="rgb(255,12,12)" stroke-width="1" font-size="16" >O</text>
<text x="247.205081" y="168.000000" fill="rgb(255,12,12)"  stroke="rgb(255,12,12)" stroke-width="1" font-size="16" >O</text>
</svg>
</g>
<text font-size="18.000000" fill ="black" font-family="sans-serif"
x="10.000000" y="20.000000" >310f</text>
</svg>
